<svg width="24" height="24" viewBox="0 0 24 24" fill="none" xmlns="http://www.w3.org/2000/svg">
<path d="M12.8737 6.20814C14.0926 6.41737 15.2069 6.99398 16.0949 7.87955C16.9781 8.76273 17.5571 9.87698 17.7664 11.0984C17.8467 11.5801 18.2603 11.928 18.7493 11.928C18.8125 11.928 18.8685 11.9207 18.9074 11.9134C18.9099 11.9134 18.9123 11.9134 18.9147 11.9109C19.1799 11.8671 19.411 11.7236 19.5643 11.5022C19.7176 11.2832 19.776 11.0205 19.7298 10.7601C19.4524 9.13006 18.6836 7.64598 17.5036 6.46602C16.3188 5.28606 14.8323 4.51722 13.2046 4.24233H13.2022C12.6597 4.15231 12.1463 4.51969 12.0563 5.0598C11.9711 5.60478 12.3361 6.11814 12.8737 6.20814Z" fill="#323E67"/>
<path d="M19.007 14.5606C18.462 13.9937 17.8027 13.6944 17.0996 13.6944C16.4037 13.6944 15.7396 13.9888 15.1824 14.5484L13.7981 15.9327C13.764 15.9157 13.7299 15.8986 13.6983 15.8816L13.6277 15.8475C13.4793 15.7721 13.309 15.687 13.1679 15.5994C11.7471 14.6968 10.4503 13.5144 9.19981 11.9816C8.66457 11.3077 8.28989 10.736 8.01496 10.1666C8.36287 9.83819 8.68646 9.50973 8.99058 9.19831C9.0587 9.13019 9.12682 9.05964 9.19738 8.98908C9.2655 8.91853 9.33606 8.84797 9.40661 8.77742C9.98567 8.19836 10.2922 7.5269 10.2898 6.83591C10.2898 6.14737 9.98324 5.47832 9.40661 4.90415L8.0612 3.55874C7.98335 3.48089 7.90549 3.40304 7.83007 3.32518C7.75465 3.24733 7.6768 3.16947 7.60138 3.09405L7.49433 2.98457C7.22914 2.71452 6.9542 2.43475 6.67686 2.17925C6.13673 1.64157 5.48227 1.35693 4.78888 1.35693C4.09794 1.35693 3.43858 1.64159 2.8766 2.17925C2.87417 2.18168 2.87174 2.18168 2.87174 2.18412L1.18573 3.86772C0.497189 4.55626 0.105516 5.39562 0.0203661 6.3615V6.36393C-0.069651 7.50741 0.137147 8.71415 0.672383 10.1617C1.48255 12.3514 2.69904 14.3805 4.49698 16.5458C6.69148 19.1612 9.32616 21.2241 12.326 22.6767H12.3284C13.4841 23.229 15.0363 23.8761 16.7879 23.9905H16.7952H16.8074C16.9071 23.9953 17.0117 24.0002 17.1212 24.0002C18.3498 24.0002 19.3863 23.555 20.1989 22.6767L20.2111 22.6645C20.2208 22.6548 20.2281 22.6475 20.2354 22.6377C20.4787 22.3458 20.7585 22.0757 21.0723 21.774C21.2888 21.5673 21.5102 21.3556 21.7243 21.1269C22.2766 20.5503 22.5686 19.8788 22.5661 19.1854C22.5637 18.4895 22.2669 17.8254 21.7073 17.2658L19.007 14.5606ZM18.7394 21.341C18.3063 21.8033 17.81 22.01 17.1336 22.01C17.0703 22.01 16.9998 22.0052 16.9268 22.0003C15.5254 21.9103 14.1995 21.3556 13.202 20.8812C10.4479 19.5552 8.03423 17.6673 6.02737 15.2685C4.38514 13.2906 3.27814 11.4464 2.54582 9.47086C2.10789 8.29576 1.94248 7.38584 2.01059 6.527C2.05438 6.0258 2.24172 5.62683 2.59934 5.27404L4.2732 3.60018C4.44838 3.4323 4.62842 3.34228 4.7963 3.34228C4.95444 3.34228 5.12231 3.42987 5.2999 3.60261C5.30233 3.60504 5.30477 3.60748 5.3072 3.60991C5.59672 3.8824 5.87896 4.16948 6.17819 4.47115L6.18792 4.48088C6.33146 4.62929 6.4969 4.7996 6.66478 4.9626L8.00779 6.30561C8.3995 6.69731 8.3995 6.97221 8.00779 7.36393C7.86668 7.50504 7.72314 7.64858 7.58203 7.79456L7.48228 7.89675C7.10517 8.27872 6.74996 8.63881 6.36313 8.98186C6.35827 8.98672 6.35097 8.99159 6.3461 8.99889L6.32177 9.02322C5.91061 9.43438 5.79868 9.92583 5.99089 10.4806C5.99576 10.4952 6.00063 10.5073 6.00549 10.5195C6.00793 10.5268 6.01036 10.5341 6.01522 10.5414C6.3753 11.4099 6.88136 12.2347 7.6599 13.22C7.6599 13.2225 7.66234 13.2225 7.66234 13.2249C9.04422 14.9256 10.5016 16.2539 12.1196 17.2806C12.3313 17.4144 12.5502 17.5263 12.7546 17.6285C12.9054 17.704 13.0757 17.7915 13.2168 17.8767C13.2266 17.884 13.2363 17.8889 13.246 17.8937L13.2533 17.8986C13.2679 17.9059 13.2825 17.9156 13.2996 17.9229C13.5112 18.03 13.7205 18.0811 13.937 18.0811C14.3068 18.0811 14.6474 17.9278 14.9223 17.6383L16.6059 15.9547C16.7276 15.833 16.9173 15.687 17.1168 15.687C17.3017 15.687 17.4818 15.8306 17.5985 15.9522C17.601 15.9547 17.601 15.9547 17.6034 15.9571L20.321 18.6747C20.5886 18.9423 20.7711 19.2586 20.2991 19.7549L20.2967 19.7573C20.1483 19.9179 19.9901 20.0712 19.8223 20.2342C19.7858 20.2683 19.7493 20.3048 19.7128 20.3413C19.3722 20.66 19.0462 20.9762 18.7396 21.3412L18.7394 21.341Z" fill="#323E67"/>
<path d="M23.9608 10.5653C23.5132 7.93044 22.2675 5.52662 20.3576 3.61675C18.4405 1.70447 16.0367 0.458808 13.3992 0.0135714C12.8567 -0.0764457 12.3434 0.290928 12.2533 0.831039C12.1633 1.37357 12.5307 1.88692 13.0683 1.97696C15.2993 2.3565 17.3308 3.41241 18.9461 5.02542C20.5616 6.64087 21.615 8.67241 21.9946 10.901C22.0748 11.3827 22.4885 11.7306 22.9775 11.7306H22.9848C23.0456 11.7306 23.0967 11.7233 23.1356 11.716C23.138 11.716 23.1405 11.716 23.1429 11.7135C23.4081 11.6697 23.6392 11.5262 23.7925 11.3048C23.9482 11.0883 24.0066 10.8255 23.9604 10.5652L23.9608 10.5653Z" fill="#323E67"/>
</svg>
