<svg width="21" height="27" viewBox="0 0 21 27" fill="none" xmlns="http://www.w3.org/2000/svg">
<path fill-rule="evenodd" clip-rule="evenodd" d="M10.0917 6.11572C7.89755 6.11572 6.11548 7.8978 6.11548 10.092C6.11548 12.2861 7.89755 14.0682 10.0917 14.0682C12.2859 14.0682 14.068 12.2861 14.068 10.092C14.068 7.8978 12.2859 6.11572 10.0917 6.11572ZM10.0917 7.2519C11.6594 7.2519 12.9318 8.52427 12.9318 10.092C12.9318 11.6597 11.6594 12.932 10.0917 12.932C8.52402 12.932 7.25166 11.6597 7.25166 10.092C7.25166 8.52427 8.52402 7.2519 10.0917 7.2519Z" fill="#323E67"/>
<path fill-rule="evenodd" clip-rule="evenodd" d="M5.67993 10.0919C5.67993 7.65722 7.65698 5.68018 10.0917 5.68018C12.5263 5.68018 14.5034 7.65722 14.5034 10.0919C14.5034 12.5266 12.5263 14.5036 10.0917 14.5036C7.65698 14.5036 5.67993 12.5266 5.67993 10.0919ZM12.4962 10.0919C12.4962 8.76471 11.4189 7.68732 10.0917 7.68732C8.76447 7.68732 7.68708 8.76471 7.68708 10.0919C7.68708 11.4191 8.76447 12.4965 10.0917 12.4965C11.4189 12.4965 12.4962 11.4191 12.4962 10.0919ZM6.11541 10.0919C6.11541 7.89773 7.89749 6.11566 10.0917 6.11566C12.2858 6.11566 14.0679 7.89773 14.0679 10.0919C14.0679 12.2861 12.2858 14.0681 10.0917 14.0681C7.89749 14.0681 6.11541 12.2861 6.11541 10.0919ZM12.9317 10.0919C12.9317 8.5242 11.6594 7.25184 10.0917 7.25184C8.52396 7.25184 7.2516 8.5242 7.2516 10.0919C7.2516 11.6596 8.52396 12.932 10.0917 12.932C11.6594 12.932 12.9317 11.6596 12.9317 10.0919Z" fill="#323E67"/>
<path fill-rule="evenodd" clip-rule="evenodd" d="M10.0918 0.435547C4.76196 0.435547 0.435547 4.7621 0.435547 10.0918C0.435547 13.1188 1.83055 16.0147 3.56526 18.3766C6.00613 21.701 9.05677 23.9426 9.08354 23.9625C9.68396 24.4028 10.4995 24.4028 11.0999 23.9625C11.1267 23.9427 14.1775 21.7012 16.6182 18.3766C18.3529 16.0146 19.7479 13.1188 19.7479 10.0918C19.7479 4.76196 15.4214 0.435547 10.0916 0.435547H10.0918ZM10.0918 1.57153C14.7946 1.57153 18.6122 5.38915 18.6122 10.0919C18.6122 12.877 17.299 15.5308 15.7027 17.7048C13.359 20.897 10.4279 23.0463 10.4279 23.0463C10.228 23.1933 9.95525 23.1933 9.75539 23.0463C9.75539 23.0463 6.82443 20.8968 4.48054 17.7048C2.88431 15.5309 1.57105 12.8773 1.57105 10.0919C1.57105 5.38915 5.38867 1.57153 10.0914 1.57153H10.0918Z" fill="#323E67"/>
<path fill-rule="evenodd" clip-rule="evenodd" d="M9.08348 23.9625L9.08179 23.9612C8.99611 23.8978 5.9818 21.6679 3.56519 18.3765C1.83049 16.0146 0.435483 13.1188 0.435483 10.0918C0.435483 4.7621 4.76179 0.435588 10.0916 0.435483C10.0915 0.435483 10.0916 0.435483 10.0916 0.435483C15.4212 0.435588 19.7478 4.76196 19.7478 10.0918C19.7478 13.1187 18.3528 16.0145 16.6181 18.3765C14.1871 21.688 11.1508 23.9249 11.1003 23.9621C10.4999 24.4024 9.6839 24.4027 9.08348 23.9625ZM10.0916 0C4.52127 0.000103957 0 4.5216 0 10.0918C0 13.2486 1.45163 16.2345 3.21416 18.6342C4.45679 20.3267 5.85135 21.7395 6.93591 22.7302C7.47887 23.2262 7.94579 23.6179 8.27953 23.8875C8.44645 24.0223 8.58016 24.1267 8.67353 24.1984C8.72023 24.2343 8.75683 24.262 8.78246 24.2812C8.80733 24.2999 8.82406 24.3122 8.8232 24.3116L8.82596 24.3136C9.57966 24.8663 10.6037 24.8663 11.3574 24.3136L11.362 24.3102L11.3706 24.3038L11.4008 24.2813C11.4264 24.2621 11.463 24.2344 11.5098 24.1985C11.6032 24.1268 11.7369 24.0224 11.9038 23.8876C12.2376 23.618 12.7045 23.2263 13.2475 22.7303C14.3321 21.7396 15.7266 20.3268 16.9691 18.6343C18.7317 16.2344 20.1833 13.2485 20.1833 10.0918C20.1833 4.52144 15.6617 0.000105177 10.0916 0ZM10.1703 22.6951L10.1715 22.6942L10.177 22.6901L10.2001 22.6729C10.2209 22.6573 10.2522 22.6336 10.2932 22.6022C10.3753 22.5392 10.4961 22.445 10.6489 22.3217C10.9544 22.075 11.3873 21.7124 11.8927 21.2509C12.9051 20.3269 14.202 19.0128 15.3516 17.447C16.9225 15.3075 18.1767 12.7444 18.1767 10.0919C18.1767 5.6296 14.554 2.00695 10.0918 2.00695C5.6295 2.00695 2.00647 5.6296 2.00647 10.0919C2.00647 12.7446 3.26058 15.3076 4.83149 17.447C5.98119 19.0127 7.27817 20.3268 8.29046 21.2509C8.79592 21.7123 9.22873 22.075 9.53428 22.3217C9.68702 22.445 9.80784 22.5392 9.88991 22.6022C9.93094 22.6337 9.96228 22.6573 9.98306 22.6729L10.0062 22.6902L10.0116 22.6942L10.0128 22.695C10.0591 22.7291 10.1239 22.7292 10.1703 22.6951ZM9.75532 23.0463C9.75532 23.0463 6.82436 20.8968 4.48047 17.7047C2.88424 15.5309 1.57098 12.8772 1.57098 10.0919C1.57098 5.38909 5.3886 1.57147 10.0914 1.57147C14.7941 1.57147 18.6121 5.38909 18.6121 10.0919C18.6121 12.877 17.2989 15.5308 15.7027 17.7047C13.359 20.897 10.4278 23.0463 10.4278 23.0463C10.2279 23.1933 9.95519 23.1933 9.75532 23.0463Z" fill="#323E67"/>
<path fill-rule="evenodd" clip-rule="evenodd" d="M5.54783 26.5647H14.6359C14.9495 26.5647 15.204 26.3102 15.204 25.9968C15.204 25.6832 14.9495 25.4287 14.6359 25.4287H5.54783C5.23421 25.4287 4.97974 25.6832 4.97974 25.9968C4.97974 26.3102 5.23421 26.5647 5.54783 26.5647Z" fill="#323E67"/>
<path fill-rule="evenodd" clip-rule="evenodd" d="M14.6358 27.0004H5.54776C4.99373 27.0004 4.54419 26.551 4.54419 25.997C4.54419 25.4429 4.99363 24.9934 5.54776 24.9934H14.6358C15.19 24.9934 15.6394 25.4429 15.6394 25.997C15.6394 26.551 15.1899 27.0004 14.6358 27.0004ZM14.6358 26.5649H5.54776C5.23415 26.5649 4.97967 26.3104 4.97967 25.997C4.97967 25.6834 5.23415 25.4289 5.54776 25.4289H14.6358C14.9495 25.4289 15.2039 25.6834 15.2039 25.997C15.2039 26.3104 14.9495 26.5649 14.6358 26.5649Z" fill="#323E67"/>
</svg>
