<svg width="44" height="38" viewBox="0 0 44 38" fill="none" xmlns="http://www.w3.org/2000/svg">
<path d="M34.5856 8.88161C37.0339 8.88161 39.026 6.88989 39.026 4.44163C39.026 1.99336 37.0339 0.00125122 34.5856 0.00125122C32.1374 0.00125122 30.1453 1.99336 30.1453 4.44163C30.1453 6.88989 32.1374 8.88161 34.5856 8.88161ZM34.5856 1.6037C36.1505 1.6037 37.4236 2.87674 37.4236 4.44163C37.4236 6.00612 36.1505 7.27916 34.5856 7.27916C33.0207 7.27916 31.7477 6.00612 31.7477 4.44163C31.7477 2.87674 33.0207 1.6037 34.5856 1.6037Z" fill="#2A3757"/>
<path d="M39.0675 9.79973H29.477C28.4638 9.79973 27.5014 10.1839 26.7674 10.8807L25.2182 12.3509L24.2675 11.6147V0.801224C24.2675 0.358751 23.9092 0 23.4663 0H3.94038C3.49791 0 3.13916 0.358751 3.13916 0.801224V14.0214C3.13916 14.4639 3.49791 14.8226 3.94038 14.8226H19.5202L23.4749 17.7811C24.5562 18.5909 26.021 18.6918 27.1751 18.0553L28.7791 17.2544V30.2822C28.7791 32.1037 30.261 33.5857 32.0826 33.5857C33.0883 33.5857 33.9791 33.1247 34.5856 32.4141C35.1921 33.1247 36.083 33.5857 37.0887 33.5857C38.9102 33.5857 40.3921 32.1037 40.3921 30.2822V21.7661C40.7012 21.8955 41.0398 21.9679 41.3952 21.9679C42.8318 21.9679 44 20.7997 44 19.3632V14.7323C44 12.0125 41.7872 9.79973 39.0675 9.79973ZM18.8014 10.9593C18.3191 11.6346 18.2048 12.4647 18.3987 13.2202H4.74161V1.60245H22.6651V10.3765C21.4229 9.43238 19.6858 9.7222 18.8014 10.9593ZM42.3975 19.3632C42.3975 19.9156 41.9476 20.3655 41.3952 20.3655C40.842 20.3655 40.3921 19.9156 40.3921 19.3632C40.3921 18.9948 40.3921 16.326 40.3921 15.9591C40.3921 15.5167 40.0338 15.1579 39.5909 15.1579C39.1481 15.1579 38.7897 15.5167 38.7897 15.9591V30.2822C38.7897 31.2203 38.0268 31.9832 37.0887 31.9832C36.1505 31.9832 35.3868 31.2203 35.3868 30.2822C35.3868 26.2093 35.3868 25.6949 35.3868 23.1698C35.3868 22.7269 35.0285 22.3685 34.5856 22.3685C34.1428 22.3685 33.7844 22.7269 33.7844 23.1698V30.2822C33.7844 31.2203 33.0207 31.9832 32.0826 31.9832C31.1444 31.9832 30.3815 31.2203 30.3815 30.2822C30.3815 30.0613 30.3842 16.1556 30.3767 15.9348C30.3598 15.3324 29.7151 14.9963 29.2227 15.2424L26.431 16.6367C25.7956 16.9857 25.0124 16.9302 24.4342 16.4979L20.3748 13.4605C20.3655 13.4511 20.3535 13.4455 20.3439 13.4366C19.8622 13.0742 19.755 12.3813 20.1057 11.8904C20.47 11.3799 21.192 11.2605 21.7031 11.6557L24.7808 14.0386C25.093 14.2804 25.5351 14.2597 25.823 13.9866L27.8707 12.043C28.3057 11.6299 28.8761 11.4022 29.477 11.4022H39.0675C40.9039 11.4022 42.3975 12.8959 42.3975 14.7323V19.3632Z" fill="#2A3757"/>
<path d="M18.6113 4.1911H8.79634C8.35387 4.1911 7.99512 4.54985 7.99512 4.99232C7.99512 5.4348 8.35387 5.79355 8.79634 5.79355H18.6113C19.0538 5.79355 19.4126 5.4348 19.4126 4.99232C19.4126 4.54985 19.0538 4.1911 18.6113 4.1911Z" fill="#2A3757"/>
<path d="M18.6113 7.27917H8.79634C8.35387 7.27917 7.99512 7.63793 7.99512 8.0804C7.99512 8.52287 8.35387 8.88162 8.79634 8.88162H18.6113C19.0538 8.88162 19.4126 8.52287 19.4126 8.0804C19.4126 7.63793 19.0538 7.27917 18.6113 7.27917Z" fill="#2A3757"/>
<path d="M23.9361 29.0529C24.7169 28.2108 25.1986 27.0875 25.1986 25.8512C25.1986 23.2504 23.0821 21.1339 20.4805 21.1339C17.8793 21.1339 15.7627 23.2504 15.7627 25.8512C15.7627 27.0875 16.2445 28.2108 17.0253 29.0529C15.7337 29.2964 14.6237 30.0571 13.9209 31.1136C13.218 30.0571 12.1078 29.2963 10.8161 29.0529C11.5969 28.2108 12.0786 27.0875 12.0786 25.8512C12.0786 23.2504 9.96209 21.1339 7.36085 21.1339C4.75961 21.1339 2.6431 23.2504 2.6431 25.8512C2.6431 27.0875 3.12484 28.2108 3.90562 29.0529C1.68563 29.4714 0 31.422 0 33.7617V36.7906C0 37.2334 0.358751 37.5918 0.801224 37.5918H4.71775H27.0405C27.4834 37.5918 27.8417 37.2334 27.8417 36.7906V33.7617C27.8417 31.4219 26.1561 29.4713 23.9361 29.0529ZM7.36085 22.7363C9.07871 22.7363 10.4762 24.1337 10.4762 25.8512C10.4762 27.5695 9.07871 28.9669 7.36085 28.9669C5.64299 28.9669 4.24555 27.5695 4.24555 25.8512C4.24555 24.1337 5.64299 22.7363 7.36085 22.7363ZM13.1196 35.9893H10.8056V33.858C10.8056 33.4151 10.4468 33.0567 10.0043 33.0567C9.56187 33.0567 9.20312 33.4151 9.20312 33.858V35.9893H5.51897V33.858C5.51897 33.4151 5.16022 33.0567 4.71775 33.0567C4.27528 33.0567 3.91653 33.4151 3.91653 33.858V35.9893H1.60245V33.7617C1.60245 32.0012 3.03471 30.5694 4.79482 30.5694H9.92688C11.6874 30.5694 13.1196 32.0012 13.1196 33.7617V35.9893ZM20.4805 22.7363C22.1984 22.7363 23.5962 24.1337 23.5962 25.8512C23.5962 27.5695 22.1984 28.9669 20.4805 28.9669C18.7626 28.9669 17.3652 27.5695 17.3652 25.8512C17.3652 24.1337 18.7626 22.7363 20.4805 22.7363ZM26.2393 35.9893H23.9248V33.858C23.9248 33.4151 23.5665 33.0567 23.1236 33.0567C22.6811 33.0567 22.3224 33.4151 22.3224 33.858V35.9893H18.6386V33.858C18.6386 33.4151 18.2799 33.0567 17.8374 33.0567C17.3949 33.0567 17.0362 33.4151 17.0362 33.858V35.9893H14.7221V33.7617C14.7221 32.0012 16.1544 30.5694 17.9145 30.5694H23.0469C24.8074 30.5694 26.2393 32.0012 26.2393 33.7617V35.9893Z" fill="#2A3757"/>
</svg>
