<svg width="46" height="46" viewBox="0 0 46 46" fill="none" xmlns="http://www.w3.org/2000/svg">
<path d="M39.2132 6.03279C39.213 4.69821 38.7704 3.40134 37.9545 2.34516C37.1387 1.28899 35.9957 0.53311 34.7044 0.195843C33.4132 -0.141424 32.0465 -0.041048 30.8184 0.481261C29.5903 1.00357 28.57 1.91833 27.9172 3.08238C26.8394 2.89637 25.7306 3.10706 24.7961 3.67547C23.8615 4.24387 23.1645 5.13152 22.8339 6.17418C21.382 6.49419 20.0993 7.33912 19.2321 8.54682C18.3649 9.75453 17.9742 11.2399 18.135 12.718C18.2958 14.1961 18.9968 15.5628 20.1034 16.5557C21.21 17.5487 22.6444 18.0981 24.1312 18.0984H28.6558V16.5902H24.1312C22.9824 16.5902 21.8767 16.1532 21.0383 15.3679C20.1999 14.5826 19.6917 13.5078 19.6167 12.3615C19.5417 11.2152 19.9055 10.0833 20.6344 9.19549C21.3634 8.30763 22.4027 7.73032 23.5417 7.58067C23.6992 7.56018 23.8463 7.49046 23.9619 7.38145C24.0774 7.27244 24.1556 7.1297 24.1853 6.97362C24.2659 6.5525 24.4354 6.1534 24.6824 5.80295C24.9295 5.45249 25.2484 5.15873 25.6179 4.94125C25.9874 4.72377 26.3991 4.58757 26.8254 4.54173C27.2517 4.49589 27.6829 4.54146 28.0902 4.67541C28.2695 4.73429 28.4643 4.72382 28.6362 4.64608C28.8081 4.56833 28.9447 4.42896 29.0189 4.25547C29.4286 3.29695 30.1567 2.50929 31.0801 2.02561C32.0036 1.54192 33.0657 1.39189 34.0869 1.60086C35.1082 1.80982 36.026 2.36498 36.6852 3.17249C37.3444 3.98001 37.7046 4.99036 37.705 6.03279C37.7049 6.26764 37.6868 6.50213 37.6507 6.73419C37.6324 6.85144 37.6421 6.97134 37.6789 7.08415C37.7157 7.19695 37.7787 7.29947 37.8626 7.38338C37.9465 7.46728 38.049 7.5302 38.1618 7.56702C38.2746 7.60384 38.3945 7.61352 38.5117 7.59528C39.1279 7.49896 39.7572 7.53104 40.3604 7.68951C40.9635 7.84799 41.5274 8.12942 42.0166 8.51616C42.5058 8.90289 42.9097 9.38658 43.2031 9.93685C43.4965 10.4871 43.673 11.0921 43.7215 11.7138C43.77 12.3355 43.6894 12.9606 43.4849 13.5497C43.2803 14.1388 42.9562 14.6792 42.5329 15.1371C42.1095 15.595 41.5961 15.9605 41.0248 16.2105C40.4536 16.4606 39.8368 16.5898 39.2132 16.5902H35.4427V18.0984H39.2132C40.8131 18.0984 42.3476 17.4628 43.479 16.3314C44.6103 15.2 45.2459 13.6656 45.2459 12.0656C45.2459 10.4656 44.6103 8.93112 43.479 7.79975C42.3476 6.66838 40.8131 6.03279 39.2132 6.03279Z" fill="#517AFF"/>
<path d="M12.0657 20.3607H13.5739V21.8688H12.0657V20.3607Z" fill="#517AFF"/>
<path d="M15.082 20.3607H16.5902V21.8688H15.082V20.3607Z" fill="#517AFF"/>
<path d="M9.04907 20.3607H10.5573V21.8688H9.04907V20.3607Z" fill="#517AFF"/>
<path d="M12.0657 26.3935H13.5739V27.9017H12.0657V26.3935Z" fill="#517AFF"/>
<path d="M15.082 26.3935H16.5902V27.9017H15.082V26.3935Z" fill="#517AFF"/>
<path d="M9.04907 26.3935H10.5573V27.9017H9.04907V26.3935Z" fill="#517AFF"/>
<path d="M12.0657 32.4262H13.5739V33.9344H12.0657V32.4262Z" fill="#517AFF"/>
<path d="M15.082 32.4262H16.5902V33.9344H15.082V32.4262Z" fill="#517AFF"/>
<path d="M9.04907 32.4262H10.5573V33.9344H9.04907V32.4262Z" fill="#517AFF"/>
<path d="M3.01639 41.4771V42.418C3.01639 43.2053 3.56811 44.3162 6.19596 45.1374C7.976 45.6936 10.3283 46 12.8197 46C15.311 46 17.6633 45.6936 19.4434 45.1374C22.0712 44.3162 22.623 43.2053 22.623 42.418V41.4742C25.0844 40.4879 25.6393 39.3143 25.6393 38.459H27.9016C28.1016 38.459 28.2934 38.3796 28.4349 38.2381C28.5763 38.0967 28.6557 37.9049 28.6557 37.7049V36.8868C29.7093 36.7074 30.6656 36.1613 31.3555 35.3451C32.0455 34.5288 32.4247 33.495 32.4262 32.4262V17.6566L35.2218 14.8611C35.2918 14.7911 35.3473 14.7079 35.3852 14.6164C35.4231 14.525 35.4426 14.4269 35.4426 14.3279V12.0656H33.9344V14.0156L32.4262 15.5238V8.29507H30.918V14.0155L29.4098 12.5073V10.5574H27.9016V12.8197C27.9016 12.9187 27.9211 13.0168 27.959 13.1083C27.9969 13.1997 28.0525 13.2829 28.1225 13.3529L30.918 16.1484V32.4262C30.9172 33.0948 30.6946 33.7441 30.2853 34.2727C29.8759 34.8012 29.3028 35.1791 28.6557 35.3471V34.6885C28.6557 34.4885 28.5763 34.2967 28.4349 34.1553C28.2934 34.0139 28.1016 33.9344 27.9016 33.9344H25.6393V19.6065H24.1311V20.3606C24.1311 21.4134 20.2462 23.377 12.8197 23.377C5.39312 23.377 1.5082 21.4134 1.5082 20.3606V16.5773C2.11148 16.974 2.9374 17.362 4.0627 17.7138C6.41276 18.4481 9.52257 18.8525 12.8197 18.8525C14.8865 18.8609 16.95 18.6881 18.9866 18.336L18.7183 16.8518C16.7703 17.188 14.7965 17.3528 12.8197 17.3443C5.39312 17.3443 1.5082 15.3806 1.5082 14.3279C1.5082 13.2751 5.39312 11.3115 12.8197 11.3115C14.0532 11.31 15.2859 11.3713 16.5132 11.4953L16.6672 9.995C15.3888 9.8658 14.1046 9.8018 12.8197 9.80327C9.52257 9.80327 6.41276 10.2077 4.0627 10.942C0.704988 11.9914 0 13.3624 0 14.3279V38.459C0 39.7266 1.17489 40.736 3.01639 41.4771ZM12.8197 44.4918C7.3468 44.4918 4.52459 43.0382 4.52459 42.418V41.9853C6.86663 42.646 9.85154 42.9836 12.8197 42.9836C15.9053 42.9836 18.8267 42.6293 21.1148 41.982V42.418C21.1148 43.0382 18.2925 44.4918 12.8197 44.4918ZM24.1311 38.459C24.1311 39.5117 20.2462 41.4754 12.8197 41.4754C5.39312 41.4754 1.5082 39.5117 1.5082 38.459V34.6761C3.78746 36.1764 8.32336 36.9508 12.8197 36.9508C16.1168 36.9508 19.2266 36.5464 21.5766 35.8121C22.7023 35.4603 23.5287 35.0724 24.1311 34.6757V38.459ZM27.1475 35.4426V36.9508H25.6393V35.4426H27.1475ZM1.5082 22.6105C3.78746 24.1108 8.32336 24.8852 12.8197 24.8852C16.1168 24.8852 19.2266 24.4809 21.5766 23.7466C22.7023 23.3948 23.5287 23.0068 24.1311 22.6101V26.3934C24.1311 27.4462 20.2462 29.4098 12.8197 29.4098C5.39312 29.4098 1.5082 27.4462 1.5082 26.3934V22.6105ZM1.5082 28.6433C3.78746 30.1436 8.32336 30.918 12.8197 30.918C16.1168 30.918 19.2266 30.5136 21.5766 29.7793C22.7023 29.4276 23.5287 29.0396 24.1311 28.6429V32.4262C24.1311 33.4789 20.2462 35.4426 12.8197 35.4426C5.39312 35.4426 1.5082 33.4789 1.5082 32.4262V28.6433Z" fill="#517AFF"/>
<path d="M12.0657 38.459H13.5739V39.9672H12.0657V38.459Z" fill="#517AFF"/>
<path d="M15.082 38.459H16.5902V39.9672H15.082V38.459Z" fill="#517AFF"/>
<path d="M9.04907 38.459H10.5573V39.9672H9.04907V38.459Z" fill="#517AFF"/>
<path d="M30.918 5.27869H32.4262V6.78689H30.918V5.27869Z" fill="#517AFF"/>
<path d="M27.9016 7.54101H29.4098V9.04921H27.9016V7.54101Z" fill="#517AFF"/>
<path d="M33.9343 9.0492H35.4425V10.5574H33.9343V9.0492Z" fill="#517AFF"/>
</svg>
