<svg width="44" height="37" viewBox="0 0 44 37" fill="none" xmlns="http://www.w3.org/2000/svg">
<path d="M40.333 27.1362H38.8661V21.2689C38.8661 20.8799 38.7116 20.5068 38.4365 20.2317C38.1614 19.9566 37.7883 19.8021 37.3993 19.8021H35.9325C35.5435 19.8021 35.1704 19.9566 34.8953 20.2317C34.6202 20.5068 34.4657 20.8799 34.4657 21.2689V27.1362H33.7323V16.8684C33.7323 16.4794 33.5777 16.1063 33.3026 15.8312C33.0276 15.5561 32.6545 15.4016 32.2654 15.4016H30.7986C30.4096 15.4016 30.0365 15.5561 29.7614 15.8312C29.4863 16.1063 29.3318 16.4794 29.3318 16.8684V27.1362H28.5984V19.0686C28.5984 18.6796 28.4439 18.3065 28.1688 18.0315C27.8937 17.7564 27.5206 17.6018 27.1316 17.6018H25.6648C25.2757 17.6018 24.9026 17.7564 24.6276 18.0315C24.3525 18.3065 24.1979 18.6796 24.1979 19.0686V27.1362C24.0035 27.136 23.8171 27.0586 23.6796 26.9211C23.5421 26.7836 23.4647 26.5972 23.4645 26.4027V14.6682C23.4645 14.4737 23.3873 14.2871 23.2497 14.1496C23.1122 14.0121 22.9256 13.9348 22.7311 13.9348C22.5366 13.9348 22.3501 14.0121 22.2125 14.1496C22.075 14.2871 21.9977 14.4737 21.9977 14.6682V26.4027C21.9984 26.9861 22.2304 27.5454 22.6428 27.9578C23.0553 28.3703 23.6146 28.6023 24.1979 28.603H40.333C40.5275 28.603 40.714 28.5257 40.8516 28.3882C40.9891 28.2506 41.0664 28.0641 41.0664 27.8696C41.0664 27.6751 40.9891 27.4885 40.8516 27.351C40.714 27.2134 40.5275 27.1362 40.333 27.1362ZM25.6648 27.1362L25.6637 19.0686H27.1316V27.1362H25.6648ZM30.7986 27.1362L30.7976 16.8684H32.2654V27.1362H30.7986ZM35.9325 27.1362L35.9314 21.2689H37.3993V27.1362H35.9325ZM32.2654 5.13387C32.2654 5.03755 32.2844 4.94217 32.3212 4.85317C32.3581 4.76418 32.4121 4.68332 32.4802 4.61521C32.5483 4.5471 32.6292 4.49308 32.7182 4.45623C32.8072 4.41939 32.9025 4.40043 32.9989 4.40046H39.5995C39.7941 4.40046 39.9806 4.47773 40.1181 4.61527C40.2557 4.75281 40.333 4.93935 40.333 5.13387C40.333 5.32838 40.2557 5.51493 40.1181 5.65247C39.9806 5.79001 39.7941 5.86728 39.5995 5.86728H32.9989C32.9025 5.8673 32.8072 5.84835 32.7182 5.8115C32.6292 5.77465 32.5483 5.72063 32.4802 5.65252C32.4121 5.58441 32.3581 5.50355 32.3212 5.41456C32.2844 5.32557 32.2654 5.23019 32.2654 5.13387ZM30.0652 5.13387C30.0652 4.98881 30.1082 4.84701 30.1888 4.72641C30.2694 4.6058 30.384 4.5118 30.518 4.45628C30.652 4.40077 30.7994 4.38625 30.9417 4.41455C31.084 4.44285 31.2147 4.5127 31.3172 4.61527C31.4198 4.71784 31.4896 4.84852 31.5179 4.99079C31.5462 5.13305 31.5317 5.28052 31.4762 5.41453C31.4207 5.54854 31.3267 5.66309 31.2061 5.74367C31.0855 5.82426 30.9437 5.86728 30.7986 5.86728C30.6041 5.86728 30.4176 5.79001 30.28 5.65247C30.1425 5.51493 30.0652 5.32838 30.0652 5.13387ZM32.2654 8.06751C32.2654 7.97119 32.2844 7.8758 32.3212 7.78681C32.3581 7.69782 32.4121 7.61696 32.4802 7.54885C32.5483 7.48074 32.6292 7.42672 32.7182 7.38987C32.8072 7.35302 32.9025 7.33407 32.9989 7.3341H39.5995C39.7941 7.3341 39.9806 7.41137 40.1181 7.54891C40.2557 7.68645 40.333 7.87299 40.333 8.06751C40.333 8.26202 40.2557 8.44856 40.1181 8.5861C39.9806 8.72365 39.7941 8.80091 39.5995 8.80091H32.9989C32.9025 8.80094 32.8072 8.78199 32.7182 8.74514C32.6292 8.70829 32.5483 8.65427 32.4802 8.58616C32.4121 8.51805 32.3581 8.43719 32.3212 8.3482C32.2844 8.25921 32.2654 8.16383 32.2654 8.06751ZM32.2654 11.0011C32.2654 10.9048 32.2844 10.8094 32.3212 10.7204C32.3581 10.6315 32.4121 10.5506 32.4802 10.4825C32.5483 10.4144 32.6292 10.3604 32.7182 10.3235C32.8072 10.2867 32.9025 10.2677 32.9989 10.2677H39.5995C39.7941 10.2677 39.9806 10.345 40.1181 10.4825C40.2557 10.6201 40.333 10.8066 40.333 11.0011C40.333 11.1957 40.2557 11.3822 40.1181 11.5197C39.9806 11.6573 39.7941 11.7346 39.5995 11.7346H32.9989C32.9025 11.7346 32.8072 11.7156 32.7182 11.6788C32.6292 11.6419 32.5483 11.5879 32.4802 11.5198C32.4121 11.4517 32.3581 11.3708 32.3212 11.2818C32.2844 11.1928 32.2654 11.0975 32.2654 11.0011ZM30.0652 8.06751C30.0652 7.92245 30.1082 7.78065 30.1888 7.66004C30.2694 7.53944 30.384 7.44543 30.518 7.38992C30.652 7.33441 30.7994 7.31989 30.9417 7.34819C31.084 7.37649 31.2147 7.44634 31.3172 7.54891C31.4198 7.65147 31.4896 7.78216 31.5179 7.92442C31.5462 8.06669 31.5317 8.21416 31.4762 8.34817C31.4207 8.48218 31.3267 8.59673 31.2061 8.67731C31.0855 8.7579 30.9437 8.80091 30.7986 8.80091C30.6041 8.80091 30.4176 8.72365 30.28 8.5861C30.1425 8.44856 30.0652 8.26202 30.0652 8.06751ZM30.0652 11.0011C30.0652 10.8561 30.1082 10.7143 30.1888 10.5937C30.2694 10.4731 30.384 10.3791 30.518 10.3236C30.652 10.2681 30.7994 10.2535 30.9417 10.2818C31.084 10.3101 31.2147 10.38 31.3172 10.4825C31.4198 10.5851 31.4896 10.7158 31.5179 10.8581C31.5462 11.0003 31.5317 11.1478 31.4762 11.2818C31.4207 11.4158 31.3267 11.5304 31.2061 11.611C31.0855 11.6915 30.9437 11.7346 30.7986 11.7346C30.6041 11.7346 30.4176 11.6573 30.28 11.5197C30.1425 11.3822 30.0652 11.1957 30.0652 11.0011ZM41.7998 0H5.1293C4.54595 0.000636743 3.98669 0.23265 3.5742 0.645135C3.16172 1.05762 2.9297 1.61689 2.92907 2.20023V11.7716C2.3189 11.8571 1.76017 12.1602 1.35585 12.6251C0.951521 13.09 0.728843 13.6854 0.728843 14.3015C0.728843 14.9176 0.951521 15.513 1.35585 15.9779C1.76017 16.4428 2.3189 16.7459 2.92907 16.8314V20.2721C1.93208 21.2292 1.15528 22.3918 0.65257 23.6791C0.14986 24.9665 -0.0667206 26.3478 0.0178561 27.7272C0.102433 29.1067 0.486142 30.4512 1.14236 31.6675C1.79857 32.8838 2.71158 33.9428 3.81802 34.7709C4.92446 35.599 6.19784 36.1765 7.5498 36.4632C8.90176 36.7499 10.2999 36.7391 11.6473 36.4313C12.9946 36.1236 14.2588 35.5264 15.3523 34.6812C16.4457 33.836 17.3421 32.763 17.9794 31.5366H41.7998C42.3831 31.536 42.9424 31.304 43.3549 30.8915C43.7673 30.479 43.9994 29.9197 44 29.3364V2.20023C43.9994 1.61689 43.7673 1.05762 43.3549 0.645135C42.9424 0.23265 42.3831 0.000636743 41.7998 0ZM2.19566 14.3015C2.19566 14.0839 2.26018 13.8712 2.38106 13.6903C2.50194 13.5094 2.67376 13.3684 2.87478 13.2851C3.0758 13.2018 3.29699 13.1801 3.51039 13.2225C3.72379 13.265 3.91982 13.3697 4.07367 13.5236C4.22752 13.6774 4.3323 13.8735 4.37475 14.0869C4.4172 14.3003 4.39541 14.5215 4.31214 14.7225C4.22888 14.9235 4.08788 15.0953 3.90696 15.2162C3.72605 15.3371 3.51335 15.4016 3.29577 15.4016C3.0041 15.4013 2.72447 15.2853 2.51823 15.079C2.31198 14.8728 2.19598 14.5932 2.19566 14.3015ZM8.79634 19.1058V26.6978L2.10935 30.2985C1.61024 29.1291 1.39481 27.8583 1.48064 26.5898C1.56647 25.3213 1.95113 24.0911 2.60321 22.9997C3.25529 21.9082 4.15629 20.9865 5.23263 20.3097C6.30897 19.633 7.53012 19.2205 8.79634 19.1058ZM10.2632 19.1058C12.1398 19.2795 13.8965 20.1041 15.2291 21.4368C16.5618 22.7694 17.3864 24.5261 17.5601 26.4027H10.2632V19.1058ZM9.52975 35.2037C8.19803 35.2029 6.88721 34.8724 5.71437 34.2416C4.54152 33.6108 3.54315 32.6993 2.80843 31.5886L9.71521 27.8696H17.5601C17.3754 29.8725 16.4498 31.7345 14.9645 33.091C13.4793 34.4475 11.5412 35.2009 9.52975 35.2037ZM42.5332 29.3364C42.533 29.5308 42.4557 29.7173 42.3182 29.8548C42.1807 29.9923 41.9942 30.0696 41.7998 30.0698H18.5975C19.206 28.2015 19.2215 26.1908 18.6419 24.3134C18.0622 22.436 16.9159 20.7839 15.3602 19.5838C13.8044 18.3837 11.9155 17.6944 9.95241 17.6105C7.98937 17.5265 6.04843 18.052 4.39589 19.1149V16.6109C4.83353 16.4038 5.20357 16.077 5.46315 15.6683C5.72274 15.2595 5.86127 14.7857 5.86271 14.3015C5.86054 13.9169 5.77094 13.5379 5.6007 13.193L9.31189 9.89409C9.65553 10.1009 10.0428 10.2244 10.4427 10.2547C10.8426 10.2851 11.2441 10.2215 11.615 10.0689L14.8469 12.6207C14.6908 13.0121 14.6336 13.4359 14.6802 13.8547C14.7268 14.2735 14.8758 14.6744 15.1141 15.0219C15.3525 15.3694 15.6727 15.6529 16.0466 15.8472C16.4205 16.0416 16.8365 16.1408 17.2579 16.1362C17.6792 16.1316 18.093 16.0233 18.4625 15.8208C18.8321 15.6183 19.146 15.3279 19.3767 14.9753C19.6074 14.6226 19.7476 14.2186 19.785 13.7989C19.8225 13.3791 19.7559 12.9567 19.5913 12.5688L23.8309 9.0665C24.3357 9.41671 24.9496 9.57358 25.5605 9.50846C26.1715 9.44333 26.7385 9.16055 27.1582 8.71179C27.5778 8.26304 27.8219 7.67827 27.8459 7.06436C27.87 6.45045 27.6723 5.84839 27.289 5.36821C26.9058 4.88803 26.3625 4.56179 25.7586 4.44911C25.1546 4.33643 24.5303 4.44484 23.9997 4.75452C23.469 5.06421 23.0676 5.55449 22.8686 6.13576C22.6697 6.71704 22.6865 7.35049 22.9161 7.92037L18.6588 11.4372C18.2282 11.1503 17.721 11.0001 17.2037 11.0064C16.6863 11.0126 16.1829 11.175 15.7594 11.4722L12.7728 9.11432C13.0218 8.74028 13.1681 8.30741 13.1973 7.85903C13.2264 7.41066 13.1373 6.96248 12.9389 6.55935C12.7405 6.15622 12.4396 5.81226 12.0665 5.56188C11.6934 5.31151 11.2611 5.16349 10.8129 5.13264C10.3646 5.1018 9.9161 5.1892 9.51222 5.38611C9.10834 5.58301 8.76325 5.88252 8.51146 6.25467C8.25967 6.62682 8.11002 7.05857 8.07747 7.50671C8.04493 7.95486 8.13063 8.40369 8.32601 8.80832L4.61209 12.1095C4.54195 12.0672 4.47019 12.0276 4.39589 11.992V2.20023C4.39608 2.00578 4.47341 1.81934 4.61091 1.68184C4.74841 1.54435 4.93484 1.46701 5.1293 1.46682H41.7998C41.9942 1.46701 42.1807 1.54435 42.3182 1.68184C42.4557 1.81934 42.533 2.00578 42.5332 2.20023V29.3364ZM11.4078 8.47871C11.2539 8.63256 11.0579 8.73733 10.8445 8.77978C10.6311 8.82222 10.4099 8.80044 10.2089 8.71717C10.0079 8.63391 9.83605 8.4929 9.71517 8.31199C9.59429 8.13108 9.52977 7.91838 9.52977 7.7008C9.52977 7.48322 9.59429 7.27052 9.71517 7.08961C9.83605 6.9087 10.0079 6.76769 10.2089 6.68443C10.4099 6.60116 10.6311 6.57938 10.8445 6.62182C11.0579 6.66427 11.2539 6.76904 11.4078 6.92289C11.6138 7.12937 11.7295 7.40913 11.7295 7.7008C11.7295 7.99247 11.6138 8.27223 11.4078 8.47871ZM18.0085 14.346C17.8546 14.4998 17.6586 14.6046 17.4452 14.6471C17.2318 14.6895 17.0106 14.6677 16.8096 14.5844C16.6085 14.5012 16.4367 14.3602 16.3159 14.1793C16.195 13.9984 16.1305 13.7857 16.1305 13.5681C16.1305 13.3505 16.195 13.1378 16.3159 12.9569C16.4367 12.776 16.6085 12.635 16.8096 12.5517C17.0106 12.4684 17.2318 12.4467 17.4452 12.4891C17.6586 12.5315 17.8546 12.6363 18.0085 12.7902C18.2145 12.9966 18.3302 13.2764 18.3302 13.5681C18.3302 13.8597 18.2145 14.1395 18.0085 14.346ZM24.5202 6.18949C24.674 6.03563 24.87 5.93086 25.0834 5.88841C25.2968 5.84597 25.518 5.86775 25.719 5.95102C25.9201 6.03429 26.0919 6.17529 26.2128 6.3562C26.3336 6.53712 26.3982 6.74981 26.3982 6.96739C26.3982 7.18497 26.3336 7.39767 26.2128 7.57858C26.0919 7.75949 25.9201 7.9005 25.719 7.98376C25.518 8.06703 25.2968 8.08881 25.0834 8.04637C24.87 8.00392 24.674 7.89915 24.5202 7.7453C24.3141 7.53883 24.1984 7.25907 24.1984 6.96739C24.1984 6.67572 24.3141 6.39595 24.5202 6.18949Z" fill="#2A3757"/>
</svg>
