<svg width="50" height="50" viewBox="0 0 50 50" fill="none" xmlns="http://www.w3.org/2000/svg">
<path d="M20.632 11.2725C20.4341 10.7708 19.8671 10.5244 19.3652 10.7226C16.5327 11.8405 14.1152 13.7591 12.3744 16.2713C10.5918 18.8433 9.64966 21.8629 9.64966 25.0033C9.64966 25.5427 10.087 25.9798 10.6261 25.9798C11.1653 25.9798 11.6026 25.5426 11.6026 25.0033C11.6026 19.4647 14.931 14.5723 20.0821 12.5394C20.5839 12.3414 20.83 11.7743 20.632 11.2725Z" fill="#517AFF"/>
<path d="M31.4311 24.036C30.8918 24.036 30.4546 24.4732 30.4546 25.0125C30.4546 28.0277 28.0015 30.481 24.9861 30.481C21.9708 30.481 19.5176 28.0278 19.5176 25.0125C19.5176 21.9972 21.9708 19.544 24.9861 19.544C25.5254 19.544 25.9626 19.1068 25.9626 18.5675C25.9626 18.0282 25.5253 17.5911 24.9861 17.5911C20.8939 17.5911 17.5647 20.9203 17.5647 25.0125C17.5647 29.1047 20.894 32.4339 24.9861 32.4339C29.0782 32.4339 32.4075 29.1047 32.4075 25.0125C32.4075 24.4732 31.9703 24.036 31.4311 24.036Z" fill="#517AFF"/>
<path d="M35.0509 23.9991C34.5117 23.9991 34.0745 24.4364 34.0745 24.9756V25.0124C34.0745 25.5518 34.5118 25.9889 35.0509 25.9889C35.5901 25.9889 36.0274 25.5517 36.0274 25.0124V24.9756C36.0274 24.4364 35.5901 23.9991 35.0509 23.9991Z" fill="#517AFF"/>
<path d="M31.0995 32.9049C30.918 32.7223 30.666 32.6188 30.4092 32.6188C30.1523 32.6189 29.9005 32.7224 29.7188 32.9049C29.5371 33.0865 29.4326 33.3375 29.4326 33.5953C29.4326 33.8522 29.537 34.1041 29.7188 34.2858C29.9005 34.4674 30.1514 34.5709 30.4092 34.5709C30.666 34.5709 30.918 34.4674 31.0995 34.2858C31.2812 34.1041 31.3857 33.8522 31.3857 33.5953C31.3857 33.3374 31.2813 33.0865 31.0995 32.9049Z" fill="#517AFF"/>
<path d="M46.677 35.4073C46.1161 35.4073 45.5875 35.5476 45.1237 35.7943L42.2338 32.9044C42.0506 32.7213 41.8023 32.6184 41.5433 32.6184H34.4228C33.8835 32.6184 33.4463 33.0556 33.4463 33.5949C33.4463 34.1342 33.8836 34.5713 34.4228 34.5713H41.1387L43.7429 37.1756C43.4968 37.639 43.3568 38.167 43.3568 38.7272C43.3568 40.558 44.8461 42.0474 46.6769 42.0474C48.5077 42.0474 49.997 40.558 49.997 38.7272C49.9971 36.8966 48.5077 35.4073 46.677 35.4073ZM46.677 40.0945C45.9231 40.0945 45.3099 39.4812 45.3099 38.7274C45.3099 37.9735 45.9232 37.3603 46.677 37.3603C47.4308 37.3603 48.0441 37.9736 48.0441 38.7274C48.0441 39.4812 47.4307 40.0945 46.677 40.0945Z" fill="#517AFF"/>
<path d="M46.677 7.95579C44.8463 7.95579 43.3569 9.44515 43.3569 11.2759C43.3569 11.8363 43.497 12.3642 43.7431 12.8277L41.1389 15.4319H30.4536C29.0961 14.6557 27.5716 14.1626 25.9733 14.0175V12.2524H36.2704C36.626 12.2524 36.9536 12.059 37.1253 11.7477L40.0928 6.36985C40.4954 6.54348 40.9384 6.64016 41.4041 6.64016C43.2348 6.64016 44.7242 5.1508 44.7242 3.32003C44.7242 1.48936 43.2348 0 41.4041 0C39.5733 0 38.0839 1.48936 38.0839 3.32013C38.0839 3.96037 38.2666 4.55832 38.5817 5.06594L35.6939 10.2994H25.9733V0.98057C25.9733 0.441213 25.536 0.00410158 24.9969 0.00410158H20.6181C20.0789 0.00410158 19.6417 0.44131 19.6417 0.98057V4.00236C17.6241 4.51349 15.7031 5.30949 13.9129 6.37649L11.7844 4.24806C11.6012 4.06496 11.3528 3.96203 11.0937 3.96203C10.8347 3.96203 10.5863 4.06506 10.4032 4.24836L4.23097 10.4251C3.84982 10.8066 3.84992 11.4246 4.23117 11.8058L6.35725 13.932C5.29035 15.7223 4.49435 17.6432 3.98332 19.6607H0.976469C0.437209 19.6607 0 20.0979 0 20.6372V29.3694C0 29.9087 0.437306 30.3458 0.976469 30.3458H3.98351C4.49445 32.3633 5.29045 34.2842 6.35745 36.0745L4.23136 38.2006C3.85011 38.5819 3.85002 39.1999 4.23117 39.5813L10.4034 45.7581C10.5865 45.9413 10.8349 46.0443 11.0939 46.0444H11.0941C11.3531 46.0444 11.6014 45.9415 11.7846 45.7584L13.913 43.6301C15.7034 44.697 17.6243 45.4931 19.6417 46.0042V49.0212C19.6417 49.5604 20.0786 49.9974 20.6176 49.9977H24.9962H24.9968C25.2557 49.9977 25.504 49.8973 25.6871 49.7143C25.8703 49.5311 25.9733 49.2826 25.9733 49.0235V39.6593H35.6921L38.5829 44.9323C38.267 45.4403 38.084 46.039 38.084 46.6799C38.084 48.5106 39.5734 50 41.4042 50C43.2349 50 44.7243 48.5106 44.7243 46.6799C44.7243 44.8491 43.2348 43.3597 41.4041 43.3597C40.9396 43.3597 40.4973 43.4559 40.0956 43.629L37.1267 38.2133C36.9553 37.9006 36.627 37.7062 36.2705 37.7062H25.9732V35.0772C25.9732 34.5378 25.5358 34.1007 24.9967 34.1007C19.9803 34.1007 15.8992 30.0197 15.8992 25.0032C15.8992 20.0475 19.8823 16.0052 24.8151 15.9081C24.8707 15.9179 24.9276 15.924 24.9861 15.924C28.7655 15.924 32.1899 18.3029 33.5072 21.8434C33.6535 22.2367 34.0261 22.4798 34.4224 22.4798C34.5355 22.4798 34.6506 22.46 34.7628 22.4183C35.2683 22.2302 35.5256 21.6681 35.3375 21.1626C34.8037 19.7275 33.9837 18.4509 32.959 17.3848H41.5433C41.8023 17.3848 42.0507 17.2819 42.2339 17.0988L45.1237 14.2089C45.5876 14.4556 46.1161 14.596 46.677 14.596C48.5078 14.596 49.9972 13.1066 49.9972 11.2758C49.9972 9.44515 48.5077 7.95579 46.677 7.95579ZM41.4041 1.95304C42.158 1.95304 42.7712 2.56632 42.7712 3.32013C42.7712 4.07394 42.1579 4.68723 41.4041 4.68723C40.6503 4.68723 40.037 4.07394 40.037 3.32013C40.037 2.56632 40.6502 1.95304 41.4041 1.95304ZM41.4041 45.313C42.158 45.313 42.7712 45.9263 42.7712 46.6801C42.7712 47.4339 42.1578 48.0472 41.4041 48.0472C40.6502 48.0472 40.037 47.4339 40.037 46.6801C40.037 45.9263 40.6502 45.313 41.4041 45.313ZM24.0203 13.9956C18.3829 14.4917 13.9461 19.2392 13.9461 25.0033C13.9461 30.7674 18.3827 35.515 24.0202 36.0111V48.0467L21.5945 48.0453V45.2301C21.5945 44.7698 21.2731 44.3721 20.8231 44.2754C18.4968 43.7756 16.302 42.8661 14.2998 41.5721C13.9132 41.3224 13.4048 41.3763 13.0793 41.7018L11.0942 43.687L6.30247 38.8917L8.28587 36.9083C8.61126 36.5828 8.66537 36.0744 8.41546 35.6877C7.12161 33.6855 6.21213 31.4908 5.71252 29.1645C5.61584 28.7145 5.21809 28.3931 4.75783 28.3931H1.95294V21.614H4.75773C5.21809 21.614 5.61575 21.2925 5.71243 20.8426C6.21213 18.5162 7.12151 16.3215 8.41537 14.3193C8.66527 13.9328 8.61117 13.4243 8.28578 13.0988L6.30237 11.1154L11.0941 6.32004L13.0792 8.30521C13.4047 8.6308 13.9131 8.6846 14.2997 8.4349C16.3018 7.14104 18.4966 6.23147 20.823 5.73166C21.273 5.63498 21.5944 5.23723 21.5944 4.77697V1.95714H24.0201V13.9956H24.0203ZM46.677 12.6429C45.9231 12.6429 45.3099 12.0296 45.3099 11.2758C45.3099 10.522 45.9232 9.90873 46.677 9.90873C47.4309 9.90873 48.0441 10.522 48.0441 11.2758C48.0441 12.0296 47.4309 12.6429 46.677 12.6429Z" fill="#517AFF"/>
<path d="M46.6771 21.6954C45.1861 21.6954 43.9217 22.6834 43.5038 24.039H40.6227C40.0834 24.039 39.6462 24.4762 39.6462 25.0155C39.6462 25.5548 40.0835 25.992 40.6227 25.992H43.5037C43.9216 27.3475 45.186 28.3356 46.677 28.3356C48.5078 28.3356 49.9972 26.8463 49.9972 25.0155C49.9973 23.1847 48.5078 21.6954 46.6771 21.6954ZM46.6771 26.3826C45.9232 26.3826 45.31 25.7693 45.31 25.0155C45.31 24.2617 45.9233 23.6484 46.6771 23.6484C47.4309 23.6484 48.0442 24.2617 48.0442 25.0155C48.0442 25.7693 47.4308 26.3826 46.6771 26.3826Z" fill="#517AFF"/>
</svg>
