<svg width="50" height="50" viewBox="0 0 50 50" fill="none" xmlns="http://www.w3.org/2000/svg">
<path d="M9.78125 43.9978C9.59961 43.8152 9.34766 43.7117 9.09082 43.7117C8.83301 43.7117 8.58203 43.8152 8.40039 43.9978C8.21885 44.1794 8.11426 44.4304 8.11426 44.6882C8.11426 44.9451 8.21875 45.197 8.40039 45.3787C8.58203 45.5603 8.83311 45.6648 9.09082 45.6648C9.34766 45.6648 9.59961 45.5603 9.78125 45.3787C9.9628 45.196 10.0674 44.9451 10.0674 44.6882C10.0674 44.4314 9.96289 44.1794 9.78125 43.9978Z" fill="#517AFF"/>
<path d="M8.24461 41.2694L4.76678 35.2457C4.49715 34.7786 3.89988 34.6186 3.43279 34.8883C2.9657 35.1579 2.80564 35.7551 3.07537 36.2222L6.55321 42.2459C6.73416 42.5592 7.06229 42.7343 7.39989 42.7343C7.56551 42.7343 7.73348 42.6921 7.88719 42.6033C8.35428 42.3338 8.51434 41.7365 8.24461 41.2694Z" fill="#517AFF"/>
<path d="M43.9391 35.8845C43.7576 35.7029 43.5056 35.5984 43.2488 35.5984C42.9919 35.5984 42.74 35.7029 42.5583 35.8845C42.3767 36.0662 42.2722 36.3181 42.2722 36.575C42.2722 36.8318 42.3766 37.0837 42.5583 37.2654C42.74 37.447 42.9919 37.5515 43.2488 37.5515C43.5056 37.5515 43.7576 37.447 43.9391 37.2654C44.1208 37.0837 44.2253 36.8318 44.2253 36.575C44.2253 36.3181 44.1209 36.0662 43.9391 35.8845Z" fill="#517AFF"/>
<path d="M49.9875 29.113C49.8959 27.9651 49.3129 26.9131 48.388 26.2271C46.7645 25.0225 44.495 25.2236 43.1084 26.6948L37.0488 33.1244C36.2252 33.9981 35.2503 34.7043 34.1837 35.2171C34.2247 35.047 34.2546 34.8721 34.2724 34.6932C34.4526 32.8904 33.3259 31.1968 31.5934 30.6664L24.4054 28.4653C21.96 27.7166 19.2956 27.8023 16.9035 28.7073C16.8978 28.7094 16.8923 28.7116 16.8866 28.7138L7.74978 32.3654L6.51023 30.1789C6.37879 29.9471 6.15847 29.7791 5.90027 29.7137C5.64236 29.6485 5.36833 29.6914 5.14246 29.8327L0.458462 32.7656C0.00133235 33.0518 -0.137242 33.6544 0.148989 34.1115C0.435122 34.5686 1.03796 34.7074 1.49489 34.421L5.31433 32.0297L12.9441 45.488L8.28465 48.1775C7.81756 48.4472 7.6574 49.0443 7.92703 49.5115C8.10799 49.8249 8.43621 50 8.77381 50C8.93934 50 9.10731 49.9578 9.26102 49.8691L14.7598 46.6951C15.1179 46.4884 15.2948 46.089 15.2363 45.7029H30.7802C33.9112 45.7029 36.9609 44.4177 39.1472 42.1768L41.616 39.6467C41.9926 39.2606 41.985 38.6424 41.599 38.2657C41.2131 37.889 40.5947 37.8968 40.218 38.2826L37.7493 40.8128C35.9282 42.6793 33.3879 43.7498 30.7802 43.7498H14.204L8.72205 34.0803L17.6029 30.531C19.5903 29.7814 21.8028 29.711 23.8337 30.333L31.0217 32.5341C31.8671 32.7928 32.4169 33.6194 32.3291 34.4992C32.2451 35.3404 31.6182 35.9996 30.8142 36.1456C30.6573 36.1596 30.4999 36.1696 30.342 36.1759H23.1C22.5612 36.1759 22.1243 36.6122 22.1234 37.1509C22.1226 37.6895 22.5582 38.1273 23.097 38.129L25.5005 38.1365H29.9628C30.1016 38.1365 30.2401 38.1341 30.3784 38.129H30.4767C30.6797 38.129 30.8792 38.1133 31.0739 38.0829C33.8774 37.8123 36.526 36.5269 38.4702 34.4639L44.5298 28.0342C45.2374 27.2836 46.3956 27.1808 47.2243 27.7957C47.6962 28.1458 47.9938 28.6827 48.0405 29.2684C48.0873 29.8543 47.8788 30.4315 47.4683 30.8521L45.2989 33.0755C44.9222 33.4615 44.9298 34.0798 45.3159 34.4564C45.7018 34.8332 46.3203 34.8255 46.6968 34.4395L48.8663 32.2161C49.6705 31.392 50.0792 30.2609 49.9875 29.113Z" fill="#517AFF"/>
<path d="M32.8387 9.48049C32.8369 9.47834 32.8353 9.47619 32.8337 9.47404L25.7695 0.37754C25.5849 0.139942 25.3012 0.000683595 25.0005 0C24.9997 0 24.9989 0 24.9982 0C24.6983 0 24.4148 0.137891 24.2298 0.374024L17.1341 9.42277C17.1199 9.44094 17.1064 9.45949 17.0936 9.47844C15.6388 11.2746 14.8386 13.5332 14.8386 15.8496C14.8386 21.4337 19.3816 25.9765 24.9655 25.9765C30.5496 25.9765 35.0924 21.4335 35.0924 15.8496C35.0925 13.5361 34.2924 11.2754 32.8387 9.48049ZM24.9656 24.0234C20.4586 24.0234 16.7918 20.3566 16.7918 15.8496C16.7918 13.9536 17.4556 12.1061 18.6608 10.6473C18.6853 10.6177 18.7077 10.5869 18.7282 10.5552L24.9945 2.56397L31.2725 10.648C31.2829 10.6622 31.2937 10.6762 31.3049 10.69C32.4879 12.1414 33.1394 13.9739 33.1394 15.8496C33.1393 20.3567 29.4725 24.0234 24.9656 24.0234Z" fill="#517AFF"/>
<path d="M24.9999 13.6476C24.1028 13.6476 23.3731 13.0258 23.3731 12.2615C23.3731 11.4972 24.1029 10.8754 24.9999 10.8754C25.897 10.8754 26.6268 11.4972 26.6268 12.2615C26.6268 12.8009 27.0641 13.2381 27.6033 13.2381C28.1426 13.2381 28.5799 12.8009 28.5799 12.2615C28.5799 10.736 27.4772 9.44715 25.9765 9.04949V8.9159C25.9765 8.37654 25.5392 7.93933 24.9999 7.93933C24.4607 7.93933 24.0233 8.37654 24.0233 8.9159V9.04949C22.5227 9.44705 21.4199 10.7359 21.4199 12.2615C21.4199 14.1028 23.0259 15.6008 24.9999 15.6008C25.897 15.6008 26.6268 16.2226 26.6268 16.9869C26.6268 17.7512 25.897 18.3731 24.9999 18.3731C24.1028 18.3731 23.3731 17.7513 23.3731 16.987C23.3731 16.4476 22.9357 16.0104 22.3965 16.0104C21.8572 16.0104 21.4199 16.4476 21.4199 16.987C21.4199 18.5125 22.5227 19.8014 24.0233 20.199V20.423C24.0233 20.9624 24.4607 21.3996 24.9999 21.3996C25.5392 21.3996 25.9765 20.9624 25.9765 20.423V20.199C27.4772 19.8015 28.5799 18.5126 28.5799 16.987C28.5798 15.1456 26.9739 13.6476 24.9999 13.6476Z" fill="#517AFF"/>
</svg>
