<svg width="24" height="19" viewBox="0 0 24 19" fill="none" xmlns="http://www.w3.org/2000/svg">
<path d="M22.2984 16.7156V6.41719C21.9938 6.72187 21.6891 7.02656 21.3844 7.28906C18.9844 9.12187 17.1094 10.65 15.6703 11.8266C15.2344 12.2203 14.8406 12.525 14.5781 12.7406C14.2734 12.9609 13.9219 13.1766 13.4016 13.3969C12.9234 13.6172 12.4406 13.7438 12.0469 13.7438H12C11.5641 13.7438 11.1281 13.6125 10.6453 13.3969C10.1672 13.1766 9.77344 12.9609 9.46875 12.7406C9.16406 12.5203 8.8125 12.2156 8.37656 11.8266C6.97969 10.65 5.0625 9.12187 2.6625 7.28906C2.31563 7.02656 2.00625 6.72187 1.74844 6.41719V16.7156C1.74844 16.8469 1.79063 16.9359 1.87969 17.0203C1.96875 17.1094 2.05313 17.1516 2.18438 17.1516H21.9094C22.0406 17.1516 22.1297 17.1094 22.2141 17.0203C22.2563 16.9312 22.2984 16.8469 22.2984 16.7156ZM22.2984 2.62031V2.27344V2.1L22.2562 1.92656L22.1672 1.79531L22.0359 1.75312L21.8625 1.71094H2.1375C2.00625 1.71094 1.91719 1.75312 1.83281 1.84219C1.74844 1.93125 1.70156 2.01562 1.70156 2.14687C1.70156 3.63281 2.35781 4.89375 3.66562 5.94375C5.36719 7.29844 7.2 8.7375 9.03281 10.1766C9.075 10.2188 9.25312 10.35 9.51094 10.5703C9.77344 10.7906 9.98906 10.9641 10.1203 11.0953C10.2516 11.2266 10.4672 11.3578 10.7297 11.5312C10.9922 11.7047 11.2078 11.8359 11.3859 11.8781C11.6062 11.9672 11.7797 12.0094 11.9531 12.0094H11.9953C12.1687 12.0094 12.3422 11.9672 12.5625 11.8781C12.7828 11.7891 12.9984 11.6578 13.2188 11.5312C13.4812 11.3578 13.6547 11.2266 13.8281 11.0953C13.9594 10.9641 14.175 10.8328 14.4375 10.5703C14.7 10.35 14.8734 10.2234 14.9156 10.1766C16.7906 8.69063 18.5813 7.29844 20.2828 5.94375C20.7609 5.55 21.1969 5.02969 21.6375 4.41562C22.0781 3.75469 22.2984 3.14062 22.2984 2.62031ZM24 2.1375V16.7109C24 17.3203 23.7797 17.8031 23.3906 18.2391C22.9547 18.675 22.4766 18.8484 21.8625 18.8484H2.1375C1.52813 18.8484 1.04531 18.6281 0.609375 18.2391C0.173437 17.8453 0 17.325 0 16.7109V2.1375C0 1.52812 0.220312 1.04531 0.609375 0.609375C1.04531 0.173437 1.52344 0 2.1375 0H21.8625C22.4719 0 22.9547 0.220312 23.3906 0.609375C23.7797 1.05 24 1.57031 24 2.1375Z" fill="#323E67"/>
</svg>
