<svg width="50" height="50" viewBox="0 0 50 50" fill="none" xmlns="http://www.w3.org/2000/svg">
<path d="M39.516 33.871C36.4031 33.871 33.8708 36.4032 33.8708 39.5161C33.8708 42.629 36.4031 45.1613 39.516 45.1613C42.6289 45.1613 45.1612 42.629 45.1612 39.5161C45.1612 36.4032 42.6289 33.871 39.516 33.871ZM39.516 43.5484C37.2926 43.5484 35.4838 41.7395 35.4838 39.5161C35.4838 37.2927 37.2926 35.4839 39.516 35.4839C41.7394 35.4839 43.5483 37.2927 43.5483 39.5161C43.5483 41.7395 41.7394 43.5484 39.516 43.5484Z" fill="#517AFF"/>
<path d="M39.516 37.0968C38.1822 37.0968 37.0967 38.1822 37.0967 39.5161C37.0967 40.85 38.1822 41.9355 39.516 41.9355C40.8499 41.9355 41.9354 40.85 41.9354 39.5161C41.9354 38.1822 40.8499 37.0968 39.516 37.0968ZM39.516 40.3226C39.0717 40.3226 38.7096 39.9605 38.7096 39.5161C38.7096 39.0718 39.0717 38.7097 39.516 38.7097C39.9604 38.7097 40.3225 39.0718 40.3225 39.5161C40.3225 39.9605 39.9604 40.3226 39.516 40.3226Z" fill="#517AFF"/>
<path d="M2.11129 20.1613H2.41935V32.2581H4.03226V18.5484H2.11129C1.83629 18.5484 1.6129 18.325 1.6129 18.05C1.6129 17.9734 1.63065 17.896 1.66532 17.8274L4.39274 12.3726C4.5629 12.0331 5.11452 12.0331 5.28387 12.3726L8.01129 17.8274C8.04677 17.896 8.06452 17.9734 8.06452 18.05C8.06452 18.325 7.84113 18.5484 7.56613 18.5484H5.64516V32.2581H7.25806V20.1613H7.56613C8.73065 20.1613 9.67742 19.2145 9.67742 18.05C9.67742 17.7242 9.6 17.3976 9.45484 17.1057L6.72742 11.6516C6.36774 10.9315 5.64435 10.4839 4.83871 10.4839C4.03306 10.4839 3.30968 10.9315 2.95 11.6508L0.222581 17.1057C0.0774194 17.3976 0 17.7242 0 18.05C0 19.2145 0.946774 20.1613 2.11129 20.1613Z" fill="#517AFF"/>
<path d="M14.2403 22.2194C14.6 22.9395 15.3233 23.3871 16.129 23.3871C16.9346 23.3871 17.658 22.9395 18.0177 22.2202L20.7451 16.7653C20.8903 16.4734 20.9677 16.1468 20.9677 15.821C20.9677 14.6565 20.0209 13.7097 18.8564 13.7097H18.5483V1.61292H16.9354V15.3226H18.8564C19.1314 15.3226 19.3548 15.546 19.3548 15.821C19.3548 15.8976 19.3371 15.975 19.3024 16.0436L16.575 21.4984C16.4048 21.8379 15.8532 21.8379 15.6838 21.4984L12.9564 16.0436C12.9209 15.975 12.9032 15.8976 12.9032 15.821C12.9032 15.546 13.1266 15.3226 13.4016 15.3226H15.3225V1.61292H13.7096V13.7097H13.4016C12.2371 13.7097 11.2903 14.6565 11.2903 15.821C11.2903 16.1468 11.3677 16.4734 11.5129 16.7653L14.2403 22.2194Z" fill="#517AFF"/>
<path d="M45.9677 0H26.6129C24.3895 0 22.5806 1.80887 22.5806 4.03226V25.8411C19.3153 26.0952 16.3298 27.8782 14.5556 30.6476C14.5427 30.6476 14.5298 30.6452 14.5161 30.6452C11.2371 30.6452 8.27903 32.6702 7.05403 35.6621C6.59597 35.5435 6.125 35.4839 5.64516 35.4839C2.53226 35.4839 0 38.0161 0 41.129C0 44.2419 2.53226 46.7742 5.64516 46.7742H31.9484L32.3871 47.2129C33.1468 47.9718 34.3008 48.1573 35.2589 47.6726C35.4855 47.5564 35.7419 47.546 35.9637 47.6419C36.0677 47.6871 36.1734 47.7306 36.2782 47.7718C36.504 47.8589 36.679 48.05 36.7589 48.2944C37.0944 49.3145 38.0411 50 39.1145 50H39.9177C40.9911 50 41.9379 49.3145 42.2734 48.2935C42.3532 48.05 42.5282 47.8597 42.7524 47.7726C42.8589 47.7315 42.9645 47.6887 43.0694 47.6427C43.2887 47.5468 43.546 47.5589 43.7734 47.6734C44.7323 48.1581 45.8855 47.9726 46.6452 47.2137L47.2137 46.646C47.9734 45.8871 48.1581 44.7323 47.6734 43.7742C47.5581 43.5468 47.5476 43.2903 47.6427 43.0694C47.6879 42.9653 47.7315 42.8597 47.7726 42.7548C47.8597 42.529 48.0508 42.354 48.2952 42.2742C49.3145 41.9379 50 40.9911 50 39.9177V39.5161V39.1145V4.03226C50 1.80887 48.1911 0 45.9677 0ZM26.6129 1.6129H45.9677C47.3016 1.6129 48.3871 2.69839 48.3871 4.03226V36.7976C48.3548 36.7855 48.3258 36.7694 48.2935 36.7581C48.05 36.6782 47.8597 36.5032 47.7726 36.279C47.7315 36.1726 47.6887 36.0669 47.6427 35.9621C47.5476 35.7419 47.5589 35.4855 47.6734 35.2581C48.1581 34.3 47.9734 33.1452 47.2137 32.3863L46.7742 31.9476V4.83871C46.7742 3.94919 46.0508 3.22581 45.1613 3.22581H27.4194C26.5298 3.22581 25.8065 3.94919 25.8065 4.83871V26.0935C25.2798 25.9677 24.7411 25.8806 24.1935 25.8379V4.03226C24.1935 2.69839 25.279 1.6129 26.6129 1.6129ZM32.7258 31.5387C31.5863 29.3073 29.6855 27.5766 27.4194 26.625V24.1935H45.1613V31.1121C44.6952 31.0613 44.2145 31.1363 43.7734 31.3589C43.5468 31.4742 43.2903 31.4855 43.0685 31.3895C42.9653 31.3444 42.8597 31.3016 42.754 31.2597C42.529 31.1726 42.3532 30.9815 42.2734 30.7371C41.9379 29.7177 40.9911 29.0323 39.9177 29.0323H39.1145C38.0411 29.0323 37.0944 29.7177 36.7589 30.7387C36.679 30.9823 36.504 31.1726 36.2782 31.2597C36.1726 31.3008 36.0677 31.3435 35.9629 31.3895C35.7427 31.4847 35.4863 31.4742 35.2589 31.3589C34.4331 30.9419 33.4645 31.0234 32.7258 31.5387ZM45.1613 9.67742H27.4194V4.83871H45.1613V9.67742ZM27.4194 11.2903H45.1613V16.129H27.4194V11.2903ZM27.4194 17.7419H45.1613V22.5806H27.4194V17.7419ZM1.6129 41.129C1.6129 38.9056 3.42177 37.0968 5.64516 37.0968C6.19436 37.0968 6.72903 37.2065 7.23306 37.4226L8.07097 37.7815L8.32581 36.9065C9.12097 34.1694 11.6669 32.2581 14.5161 32.2581C16.6734 32.2581 18.6798 33.3306 19.8815 35.1258L21.2218 34.229C20.0718 32.5113 18.3315 31.3298 16.3694 30.8669C18.0371 28.7161 20.629 27.4194 23.3871 27.4194C26.9137 27.4194 30.1226 29.5476 31.5202 32.7565C31.0234 33.4911 30.9476 34.4444 31.3597 35.2581C31.475 35.4855 31.4855 35.7419 31.3903 35.9629C31.3452 36.0669 31.3016 36.1726 31.2605 36.2774C31.1734 36.5032 30.9823 36.6782 30.7379 36.7581C29.7177 37.0944 29.0323 38.0411 29.0323 39.1145V39.9177C29.0323 40.9911 29.7177 41.9379 30.7387 42.2734C30.9823 42.3532 31.1726 42.5282 31.2597 42.7524C31.3008 42.8589 31.3435 42.9645 31.3895 43.0694C31.4847 43.2895 31.4734 43.546 31.3589 43.7734C31.1363 44.2137 31.0613 44.6952 31.1121 45.1613H5.64516C3.42177 45.1613 1.6129 43.3524 1.6129 41.129ZM48.3871 39.9177C48.3871 40.2927 48.1476 40.6234 47.7903 40.7411C47.0871 40.9718 46.5323 41.4927 46.2694 42.1702C46.2355 42.2565 46.2 42.3427 46.1637 42.4266C45.8766 43.0879 45.9016 43.8435 46.2339 44.5008C46.4032 44.8355 46.3387 45.2387 46.0734 45.504L45.5048 46.0726C45.2395 46.3379 44.8363 46.4024 44.5016 46.2331C43.8452 45.9008 43.0879 45.8758 42.4282 46.1629C42.3435 46.1992 42.2573 46.2347 42.1694 46.2694C41.4927 46.5323 40.9726 47.0871 40.7411 47.7911C40.6242 48.1476 40.2927 48.3871 39.9177 48.3871H39.1145C38.7395 48.3871 38.4089 48.1476 38.2911 47.7903C38.0605 47.0871 37.5395 46.5323 36.8621 46.2694C36.7758 46.2355 36.6895 46.2 36.6056 46.1637C36.3008 46.0306 35.9758 45.9645 35.6492 45.9645C35.2677 45.9645 34.8855 46.0548 34.5315 46.2331C34.196 46.4016 33.7927 46.3379 33.5282 46.0726L32.9597 45.504C32.6944 45.2387 32.6298 44.8355 32.7992 44.5008C33.1315 43.8435 33.1565 43.0879 32.8694 42.4274C32.8331 42.3427 32.7976 42.2565 32.7629 42.1685C32.5 41.4919 31.9452 40.9718 31.2411 40.7403C30.8847 40.6242 30.6452 40.2927 30.6452 39.9177V39.1145C30.6452 38.7395 30.8847 38.4089 31.2411 38.2911C31.9452 38.0605 32.5 37.5395 32.7629 36.8621C32.7968 36.7758 32.8323 36.6895 32.8685 36.6056C33.1556 35.9444 33.1306 35.1887 32.7984 34.5315C32.629 34.1968 32.6936 33.7927 32.9589 33.5274L33.5266 32.9597C33.7919 32.6935 34.1952 32.6282 34.5306 32.7992C35.1879 33.1315 35.9444 33.1565 36.604 32.8694C36.6895 32.8323 36.7758 32.7968 36.8621 32.7637C37.5387 32.5 38.0597 31.9452 38.2911 31.2419C38.4081 30.8847 38.7395 30.6452 39.1145 30.6452H39.9177C40.2927 30.6452 40.6234 30.8847 40.7411 31.2419C40.9726 31.9452 41.4927 32.5 42.1694 32.7629C42.2556 32.7968 42.3419 32.8323 42.4266 32.8685C43.0871 33.1556 43.8435 33.1298 44.5008 32.7984C44.8355 32.6282 45.2387 32.6936 45.5048 32.9589L46.0726 33.5266C46.3379 33.7919 46.4024 34.196 46.2331 34.5306C45.9008 35.1879 45.8758 35.9436 46.1629 36.604C46.1992 36.6887 46.2347 36.775 46.2694 36.8629C46.5323 37.5395 47.0871 38.0597 47.7911 38.2911C48.1476 38.4081 48.3871 38.7395 48.3871 39.1145V39.5161V39.9177Z" fill="#517AFF"/>
<path d="M29.0322 6.45162H30.6451V8.06453H29.0322V6.45162Z" fill="#517AFF"/>
<path d="M32.2581 6.45162H33.871V8.06453H32.2581V6.45162Z" fill="#517AFF"/>
<path d="M29.0322 19.3549H30.6451V20.9678H29.0322V19.3549Z" fill="#517AFF"/>
<path d="M32.2581 19.3549H33.871V20.9678H32.2581V19.3549Z" fill="#517AFF"/>
<path d="M41.9355 12.9032H43.5485V14.5162H41.9355V12.9032Z" fill="#517AFF"/>
<path d="M38.7097 12.9032H40.3226V14.5162H38.7097V12.9032Z" fill="#517AFF"/>
<path d="M41.9355 25.8064H43.5485V27.4193H41.9355V25.8064Z" fill="#517AFF"/>
<path d="M38.7097 25.8064H40.3226V27.4193H38.7097V25.8064Z" fill="#517AFF"/>
<path d="M23.387 29.0323C22.7725 29.0323 22.162 29.1089 21.5725 29.2613L21.9749 30.8234C22.433 30.7049 22.908 30.6452 23.387 30.6452C25.9644 30.6452 28.2128 32.3863 28.8548 34.879L30.4169 34.4766C29.5911 31.271 26.7007 29.0323 23.387 29.0323Z" fill="#517AFF"/>
<path d="M14.5161 33.871C12.2242 33.871 10.2298 35.4992 9.77417 37.7427L11.3548 38.0637C11.6588 36.5686 12.9879 35.4839 14.5161 35.4839C15.5403 35.4839 16.4814 35.954 17.0976 36.775L18.3871 35.8065C17.4629 34.5766 16.0524 33.871 14.5161 33.871Z" fill="#517AFF"/>
</svg>
